<?xml version="1.0" encoding="UTF-8" standalone="no"?>
<!-- Created with Inkscape (http://www.inkscape.org/) -->

<svg
   xmlns:dc="http://purl.org/dc/elements/1.1/"
   xmlns:cc="http://creativecommons.org/ns#"
   xmlns:rdf="http://www.w3.org/1999/02/22-rdf-syntax-ns#"
   xmlns:svg="http://www.w3.org/2000/svg"
   xmlns="http://www.w3.org/2000/svg"
   xmlns:sodipodi="http://sodipodi.sourceforge.net/DTD/sodipodi-0.dtd"
   xmlns:inkscape="http://www.inkscape.org/namespaces/inkscape"
   width="27.200001"
   height="46.200001"
   id="svg3033"
   version="1.1"
   inkscape:version="0.48.3.1 r9886"
   sodipodi:docname="New document 2">
  <defs
     id="defs3035" />
  <sodipodi:namedview
     id="base"
     pagecolor="#ffffff"
     bordercolor="#666666"
     borderopacity="1.0"
     inkscape:pageopacity="0.0"
     inkscape:pageshadow="2"
     inkscape:zoom="1.979899"
     inkscape:cx="74.405131"
     inkscape:cy="49.715137"
     inkscape:document-units="px"
     inkscape:current-layer="layer1"
     showgrid="false"
     inkscape:window-width="927"
     inkscape:window-height="1028"
     inkscape:window-x="993"
     inkscape:window-y="24"
     inkscape:window-maximized="0" />
  <metadata
     id="metadata3038">
    <rdf:RDF>
      <cc:Work
         rdf:about="">
        <dc:format>image/svg+xml</dc:format>
        <dc:type
           rdf:resource="http://purl.org/dc/dcmitype/StillImage" />
        <dc:title></dc:title>
      </cc:Work>
    </rdf:RDF>
  </metadata>
  <g
     inkscape:label="Layer 1"
     inkscape:groupmode="layer"
     id="layer1"
     transform="translate(0,-1006.1622)">
    <g
       id="g3053"
       transform="matrix(1.6944799,0,0,1.4419417,0.43290768,1006.8996)">
      <g
         id="Layer_1" />
      <g
         id="map_x5F_pin_x5F_alt">
        <path
           id="path3045"
           style="fill:#4e4e50"
           d="M 8,0 C 3.582,0 0,3.582 0,8 0,12.418 8,32 8,32 8,32 16,12.418 16,8 16,3.582 12.418,0 8,0 z M 8,12 C 5.791,12 4,10.209 4,8 4,5.791 5.791,4 8,4 c 2.209,0 4,1.791 4,4 0,2.209 -1.791,4 -4,4 z"
           inkscape:connector-curvature="0" />
      </g>
    </g>
    <path
       style="fill:#d40000"
       d="M 10.321613,38.128402 C 8.4876153,34.030971 5.6770264,27.382904 4.0758602,23.354921 1.5071182,16.892851 1.1619378,15.605897 1.1416061,12.414983 1.1210543,9.1895434 1.2823458,8.5673774 2.6337924,6.6590239 3.5102005,5.4214634 5.3201926,3.8584762 6.9269407,2.9517497 9.4301997,1.5391007 10.129335,1.3841033 13.998009,1.3841033 c 3.868673,0 4.567808,0.1549974 7.071067,1.5676464 5.015128,2.8301568 6.989522,7.3538083 5.543324,12.7006403 -1.408164,5.206214 -11.850145,29.925887 -12.641169,29.925887 -0.173292,0 -1.81562,-3.352444 -3.649618,-7.449875 z m 7.999183,-21.1528 c 1.47913,-0.969163 2.74828,-3.173755 2.74828,-4.77393 0,-3.0000128 -3.37713,-5.742732 -7.071067,-5.742732 -3.693938,0 -7.0710683,2.7427192 -7.0710683,5.742732 0,2.401705 2.1957176,5.025756 4.8192763,5.759407 1.620042,0.453028 5.197549,-0.08321 6.574579,-0.985477 l 0,0 z"
       id="path3122"
       inkscape:connector-curvature="0"
       transform="translate(0,1006.1622)" />
  </g>
</svg>
