<?xml version="1.0" encoding="UTF-8" standalone="no"?>
<!-- Created with Inkscape (http://www.inkscape.org/) -->

<svg
   xmlns:dc="http://purl.org/dc/elements/1.1/"
   xmlns:cc="http://creativecommons.org/ns#"
   xmlns:rdf="http://www.w3.org/1999/02/22-rdf-syntax-ns#"
   xmlns:svg="http://www.w3.org/2000/svg"
   xmlns="http://www.w3.org/2000/svg"
   xmlns:sodipodi="http://sodipodi.sourceforge.net/DTD/sodipodi-0.dtd"
   xmlns:inkscape="http://www.inkscape.org/namespaces/inkscape"
   width="29.59"
   height="40.93"
   id="svg3088"
   version="1.1"
   inkscape:version="0.48.3.1 r9886"
   sodipodi:docname="New document 3">
  <defs
     id="defs3090" />
  <sodipodi:namedview
     id="base"
     pagecolor="#ffffff"
     bordercolor="#666666"
     borderopacity="1.0"
     inkscape:pageopacity="0.0"
     inkscape:pageshadow="2"
     inkscape:zoom="1.979899"
     inkscape:cx="171.03912"
     inkscape:cy="-130.99621"
     inkscape:document-units="px"
     inkscape:current-layer="layer1"
     showgrid="false"
     inkscape:window-width="1855"
     inkscape:window-height="1056"
     inkscape:window-x="65"
     inkscape:window-y="24"
     inkscape:window-maximized="1" />
  <metadata
     id="metadata3093">
    <rdf:RDF>
      <cc:Work
         rdf:about="">
        <dc:format>image/svg+xml</dc:format>
        <dc:type
           rdf:resource="http://purl.org/dc/dcmitype/StillImage" />
        <dc:title></dc:title>
      </cc:Work>
    </rdf:RDF>
  </metadata>
  <g
     inkscape:label="Layer 1"
     inkscape:groupmode="layer"
     id="layer1"
     transform="translate(0,-1011.4322)">
    <g
       id="g3153"
       transform="translate(-399.1929,402.72843)">
      <g
         transform="matrix(1.2201424,-0.70444955,0.70444955,1.2201424,394.33852,617.96998)"
         id="g3024">
        <g
           id="Layer_1" />
        <g
           id="map_x5F_pin_x5F_stroke">
          <g
             id="g3012">
            <path
               inkscape:connector-curvature="0"
               d="m 9.996,4 c 1.605,0 3.113,0.625 4.246,1.76 C 15.375,6.891 16,8.398 16,10 c 0,1.602 -0.625,3.109 -1.73,4.213 -0.168,0.166 -2.238,2.225 -4.273,5.441 C 7.977,16.443 5.915,14.392 5.759,14.24 4.625,13.109 4,11.602 4,10 4,8.398 4.625,6.891 5.758,5.758 6.891,4.625 8.314,4 9.996,4 m 0,-4 C 7.441,0 4.883,0.977 2.93,2.93 c -3.906,3.904 -3.906,10.236 0,14.141 0,0 7.066,6.93 7.066,14.93 0,-8 7.074,-14.93 7.074,-14.93 3.906,-3.904 3.906,-10.236 0,-14.141 C 15.117,0.977 12.559,0 9.996,0 l 0,0 z"
               style="fill:#4e4e50"
               id="path3014" />
            <path
               inkscape:connector-curvature="0"
               d="m 12,10 c 0,1.105 -0.895,2 -2.004,2 C 8.811,12 8,11.105 8,10 8,8.895 8.811,8 9.996,8 11.105,8 12,8.895 12,10 z"
               style="fill:#4e4e50"
               id="path3016" />
          </g>
        </g>
      </g>
      <path
         inkscape:connector-curvature="0"
         id="path3080"
         d="m 423.84985,643.66741 c -3.12072,-2.57363 -9.13281,-5.747 -13.67899,-7.22017 -3.40529,-1.10348 -5.52004,-2.56466 -7.53472,-5.20608 -4.94161,-6.47888 -2.97115,-15.85974 4.21608,-20.07174 1.71258,-1.00364 3.16809,-1.38504 5.97224,-1.565 3.27509,-0.2102 4.02822,-0.0812 6.45371,1.1055 6.54654,3.20292 9.11808,9.4151 7.30889,17.65641 -0.81941,3.7326 -0.8636,12.89764 -0.0751,15.57024 0.32202,1.09143 0.53311,2.03679 0.46911,2.10079 -0.064,0.064 -1.47306,-1.00247 -3.13122,-2.36995 l 0,0 z m -2.6162,-13.94887 c 0.47261,-2.99241 0.85928,-6.1697 0.85928,-7.06067 0,-7.95239 -10.97218,-11.09551 -15.68194,-4.49229 -0.94806,1.32921 -1.17453,2.29261 -1.17453,4.99648 0,2.99247 0.16555,3.55428 1.55218,5.2675 1.24219,1.53477 2.49833,2.27668 6.28974,3.71492 2.60564,0.98841 5.19041,2.0642 5.74389,2.39065 0.5535,0.32642 1.12915,0.6004 1.27923,0.60881 0.15007,0.008 0.65953,-2.43302 1.13215,-5.4254 z"
         style="fill:#008000" />
      <path
         inkscape:connector-curvature="0"
         id="path3082"
         d="m 411.85577,624.67868 c -1.08236,-1.196 -1.05438,-2.24553 0.0874,-3.27885 1.196,-1.08237 2.24553,-1.05438 3.27885,0.0874 1.04584,1.15564 1.06036,2.30258 0.042,3.32089 -1.05058,1.05059 -2.38629,0.99986 -3.40831,-0.12948 z"
         style="fill:#008000" />
    </g>
  </g>
</svg>
